PathFileType	4	(X/Y/Z)	 s08c0103.trc
DataRate	CameraRate	NumFrames	NumMarkers	Units	OrigDataRate	OrigDataStartFrame	OrigNumFrames
200	200	4	50	mm	200	1	2000
Frame#	Time	racr			lacr			c7			jug			rlel			rdr			llel			ldr			s2			lic			ric			lasi			rasi			rpsi			lpsi			rgt			lgt			rth1			rth2			rth3			rth4			rlfc			rmfc			rsh1			rsh2			rsh3			rsh4			rlmal			rmmal			rcal			rtoe			rmt5			lth1			lth2			lth4			lth3			llfc			lmfc			llmal			lmmal			lcal			lmt5			lsh1			lsh2			lsh3			lsh4			ltoe			SBIKE			LBIKE			RBIKE			
		X1	Y1	Z1	X2	Y2	Z2	X3	Y3	Z3	X4	Y4	Z4	X5	Y5	Z5	X6	Y6	Z6	X7	Y7	Z7	X8	Y8	Z8	X9	Y9	Z9	X10	Y10	Z10	X11	Y11	Z11	X12	Y12	Z12	X13	Y13	Z13	X14	Y14	Z14	X15	Y15	Z15	X16	Y16	Z16	X17	Y17	Z17	X18	Y18	Z18	X19	Y19	Z19	X20	Y20	Z20	X21	Y21	Z21	X22	Y22	Z22	X23	Y23	Z23	X24	Y24	Z24	X25	Y25	Z25	X26	Y26	Z26	X27	Y27	Z27	X28	Y28	Z28	X29	Y29	Z29	X30	Y30	Z30	X31	Y31	Z31	X32	Y32	Z32	X33	Y33	Z33	X34	Y34	Z34	X35	Y35	Z35	X36	Y36	Z36	X37	Y37	Z37	X38	Y38	Z38	X39	Y39	Z39	X40	Y40	Z40	X41	Y41	Z41	X42	Y42	Z42	X43	Y43	Z43	X44	Y44	Z44	X45	Y45	Z45	X46	Y46	Z46	X47	Y47	Z47	X48	Y48	Z48	X49	Y49	Z49	X50	Y50	Z50	
1	0.0050	547.423918	1363.426586	-47.969647	547.765101	1378.436563	-397.951121	537.611391	1428.291187	-224.790356	512.386288	1273.880769	-215.596244	604.892782	1115.194285	22.379743	803.445342	891.561121	-53.586165	658.959219	1143.207721	-428.830958	819.924135	893.274082	-387.113887	-10.940794	1198.367688	-232.424741	163.036462	1166.675525	-369.625931	146.503240	1200.024926	-64.436651	210.663540	1121.266992	-354.652859	161.229063	1142.425032	-94.910589	19.908171	1240.389851	-181.377292	28.496011	1235.861162	-276.648254	60.340464	1110.059794	-19.294887	79.763253	1057.027499	-403.078176	203.827322	1024.354525	-14.990099	291.688249	1009.825168	-14.272432	358.272482	953.565583	-16.637166	305.797778	1042.108824	-28.051978	458.632702	885.937242	-37.186215	446.057916	877.152920	-145.234106	385.302688	778.191310	-11.742084	367.938159	692.186279	-33.680762	310.116170	628.443929	-43.949940	393.414076	686.781003	-68.306778	252.430265	525.004053	-58.878440	270.392858	550.110506	-144.019425	173.547921	491.170202	-103.860352	472.077470	505.149642	-96.000784	383.832310	467.055599	-30.961868	121.792078	925.316932	-414.552706	168.909356	851.584853	-408.346988	195.718639	863.981087	-425.671149	171.455763	762.742058	-406.006682	195.671253	637.494557	-379.509433	182.400216	614.169871	-279.691455	44.103828	244.735419	-393.497055	84.157322	276.546741	-320.661611	-23.628200	206.920402	-353.910840	189.407146	181.866800	-413.201835	174.216802	532.192982	-428.174412	135.533713	435.014507	-393.580920	86.913007	362.066059	-400.553411	153.421216	431.914603	-359.460676	264.710003	223.175795	-343.031595	-189.818576	920.022788	-232.231837	16.551138	83.482904	-424.325649	9.735998	80.499837	-26.055984	
2	0.0100	547.521327	1363.548696	-47.890491	547.859614	1378.436741	-397.856957	537.790130	1428.235996	-224.726435	512.571954	1273.866029	-215.464261	604.981764	1115.238115	22.412011	803.465534	891.612149	-53.595945	658.965646	1143.219262	-428.798704	819.967776	893.305521	-387.173280	-10.818259	1198.393299	-232.582969	163.215368	1166.558898	-369.747838	146.546896	1200.056663	-64.496269	210.720447	1121.101958	-354.708357	161.304409	1142.344500	-95.044695	20.031020	1240.422270	-181.567482	28.674683	1235.803156	-276.856574	60.363183	1110.124404	-19.424408	79.785753	1056.840072	-403.176917	203.764408	1024.179439	-15.045204	291.532816	1009.531340	-14.330297	358.029988	953.006383	-16.943800	305.753583	1041.727038	-28.143038	458.349354	885.316129	-37.332090	445.064884	879.169311	-152.238665	385.367498	777.275260	-11.859729	368.373644	691.201329	-33.709674	310.864772	627.207271	-43.965297	393.972660	685.904746	-68.320816	253.591806	523.514682	-58.896532	271.583063	548.583512	-143.998324	174.746607	489.478611	-103.767568	473.360331	504.410537	-96.006169	385.265168	465.923836	-30.974359	121.638464	925.103801	-414.488335	168.632486	851.294980	-408.232068	195.320795	863.556260	-425.453463	171.021340	762.438877	-405.880739	194.943988	637.106526	-379.341078	181.443601	613.848603	-279.485497	42.048388	244.788539	-393.415774	82.136775	276.824533	-320.550293	-25.659957	206.618771	-353.955504	187.563251	183.101637	-413.161382	172.968587	531.767725	-427.982994	134.099295	434.757094	-393.351874	85.181767	362.082166	-400.529126	151.887074	431.656778	-359.366747	262.537547	224.980777	-343.026419	-189.666171	920.010754	-232.240925	16.610483	83.438993	-424.233049	9.757385	80.438046	-26.089341	
3	0.0150	547.591723	1363.683647	-47.837599	547.991681	1378.412529	-397.805590	537.969630	1428.212130	-224.652374	512.704954	1273.877501	-215.372474	605.064389	1115.296730	22.407601	803.492609	891.593995	-53.603205	659.004997	1143.234902	-428.771087	819.981485	893.290426	-387.170543	-10.736017	1198.433279	-232.767778	163.392795	1166.440086	-369.861196	146.595703	1200.108186	-64.560317	210.827035	1120.929025	-354.749509	161.358815	1142.347420	-95.066487	20.150749	1240.442710	-181.770704	28.809801	1235.759111	-277.026526	60.380806	1110.184751	-19.554246	79.811105	1056.653558	-403.226093	203.683083	1023.932176	-15.099852	291.127654	1009.421954	-14.580779	357.729434	952.369532	-17.147500	305.714361	1041.320182	-28.244402	458.037867	884.567774	-37.506378	445.552982	875.698387	-145.198447	385.463541	776.349329	-11.941965	368.794318	690.162396	-33.768363	311.592904	625.891512	-44.056186	395.018541	684.383663	-66.324039	254.778415	521.991296	-58.911031	272.658319	547.080999	-144.017888	175.875142	487.796436	-103.665940	474.626809	503.665060	-96.041498	386.686884	464.901305	-30.960886	121.485662	924.875795	-414.424501	168.339857	850.986267	-408.024114	195.022806	863.144636	-425.236753	170.596060	762.127954	-405.713809	194.228635	636.703954	-379.139470	180.592857	613.522013	-279.347139	40.073028	244.827336	-393.270715	79.983033	277.005039	-320.465589	-27.619320	206.263994	-353.904659	185.741223	184.354685	-413.207492	171.925373	531.415630	-427.851725	132.679139	434.490806	-393.177198	83.474919	361.919225	-400.380277	150.444001	431.317292	-359.150804	260.421184	226.744833	-343.014304	-189.678396	920.003067	-232.264638	16.614039	83.390392	-424.211377	9.736469	80.488510	-26.079822	
4	0.0200	547.696080	1363.513775	-48.520846	551.167614	1379.732956	-404.877686	538.298930	1428.321599	-224.637736	512.858674	1273.878118	-215.329074	605.950733	1115.102794	24.238850	803.537823	891.586311	-53.615392	658.016914	1144.270081	-432.645715	820.011634	893.280643	-387.197902	-10.647354	1198.461699	-232.915734	164.194542	1168.027941	-375.395524	146.652350	1200.280397	-64.732574	210.928936	1120.681985	-354.801458	161.421771	1142.338945	-95.115283	20.098410	1240.434686	-182.146237	28.948592	1235.714389	-277.194923	60.259109	1110.172228	-19.801450	80.195057	1056.319687	-402.240980	203.629267	1023.577573	-15.185406	291.149431	1009.234048	-14.869107	357.500671	951.583433	-17.573251	306.584648	1040.544741	-27.139428	457.832627	883.915058	-38.557966	444.515045	877.656762	-152.467506	385.654766	775.426361	-12.099554	367.635738	689.310393	-36.179368	312.209758	624.519896	-44.665794	394.916991	684.108850	-69.429896	255.770127	520.456386	-58.735022	273.149503	546.247035	-143.715984	177.032137	485.982770	-103.600527	475.800571	502.900291	-96.051820	388.019180	463.824365	-31.016781	122.314694	926.919470	-418.703535	168.138797	850.617824	-407.681739	196.875793	862.154005	-416.093460	170.530172	761.635724	-404.554859	193.747254	636.200274	-378.795779	179.450238	614.363852	-282.807891	38.599949	243.900296	-391.704441	58.112537	265.686593	-307.238168	-29.554222	205.920815	-353.880774	183.226206	187.418404	-415.931347	154.548976	527.085547	-427.366835	130.810601	435.848748	-395.953289	81.281423	362.796689	-401.814134	148.760126	432.447561	-361.673297	257.533162	229.606454	-344.580429	-185.009277	919.983711	-227.830881	16.645676	83.413601	-424.230052	9.638158	80.000392	-26.879167	
